<svg width="230" height="45" viewBox="0 0 230 45" fill="none" xmlns="http://www.w3.org/2000/svg">
<path d="M40.176 44.12C38.64 44.12 37.28 43.736 36.096 42.968C34.944 42.232 34.048 41.128 33.408 39.656C32.768 38.184 32.448 36.424 32.448 34.376C32.448 32.968 32.544 31.672 32.736 30.488C32.928 29.304 33.216 27.816 33.6 26.024C34.016 24.232 34.32 22.664 34.512 21.32C34.736 19.944 34.848 18.44 34.848 16.808C34.848 11.656 33.12 9.08 29.664 9.08C27.744 9.08 26.224 10.008 25.104 11.864C24.016 13.72 23.472 16.152 23.472 19.16C23.472 20.696 23.632 22.024 23.952 23.144C24.304 24.232 24.8 25.416 25.44 26.696C25.92 27.688 26.256 28.504 26.448 29.144C26.672 29.784 26.784 30.472 26.784 31.208C26.784 32.52 26.368 33.56 25.536 34.328C24.736 35.064 23.408 35.432 21.552 35.432C19.888 35.432 18.592 35.064 17.664 34.328C16.736 33.592 16.272 32.568 16.272 31.256C16.272 30.456 16.4 29.72 16.656 29.048C16.912 28.344 17.296 27.464 17.808 26.408C18.544 24.936 19.104 23.624 19.488 22.472C19.872 21.288 20.064 19.864 20.064 18.2C20.064 15.128 19.584 12.808 18.624 11.24C17.696 9.672 16.432 8.888 14.832 8.888C13.808 8.888 12.96 9.048 12.288 9.368C11.616 9.656 10.848 10.12 9.984 10.76C9.312 11.272 8.704 11.672 8.16 11.96C7.616 12.216 6.976 12.344 6.24 12.344C4.512 12.344 3.2 11.912 2.304 11.048C1.408 10.152 0.96 8.856 0.96 7.16C0.96 5.208 1.696 3.688 3.168 2.6C4.672 1.48 6.48 0.919998 8.592 0.919998C11.216 0.919998 13.296 1.272 14.832 1.976C16.4 2.648 17.52 3.432 18.192 4.328C18.864 5.224 19.472 6.312 20.016 7.592C20.336 8.36 20.608 8.92 20.832 9.272C21.088 9.592 21.44 9.752 21.888 9.752C22.304 9.752 22.656 9.576 22.944 9.224C23.232 8.84 23.584 8.2 24 7.304C24.608 6.056 25.216 5.016 25.824 4.184C26.464 3.32 27.408 2.568 28.656 1.928C29.936 1.256 31.568 0.919998 33.552 0.919998C36.432 0.919998 38.576 1.576 39.984 2.888C41.424 4.2 42.144 5.8 42.144 7.688C42.144 8.584 42.016 9.416 41.76 10.184C41.504 10.92 41.072 11.96 40.464 13.304C39.664 14.968 39.04 16.504 38.592 17.912C38.176 19.288 37.968 20.92 37.968 22.808C37.968 25.304 38.192 27.4 38.64 29.096C39.12 30.76 39.664 32.072 40.272 33.032C40.912 33.96 41.696 34.936 42.624 35.96C43.328 36.696 43.824 37.304 44.112 37.784C44.432 38.264 44.592 38.824 44.592 39.464C44.592 40.776 44.192 41.88 43.392 42.776C42.592 43.672 41.52 44.12 40.176 44.12ZM6.288 41.24C4.784 41.24 3.568 40.84 2.64 40.04C1.712 39.24 1.248 38.12 1.248 36.68C1.248 36.008 1.376 35.272 1.632 34.472C1.888 33.672 2.304 32.504 2.88 30.968C3.776 28.664 4.48 26.584 4.992 24.728C5.504 22.84 5.76 20.84 5.76 18.728C5.76 17.768 5.92 17.064 6.24 16.616C6.592 16.136 7.04 15.896 7.584 15.896C8.8 15.896 9.712 17 10.32 19.208C10.96 21.384 11.376 23.848 11.568 26.6C11.76 29.32 11.856 31.96 11.856 34.52C11.856 36.792 11.328 38.472 10.272 39.56C9.216 40.68 7.888 41.24 6.288 41.24ZM61.1719 12.44C62.1319 12.44 62.8999 12.584 63.4759 12.872C64.0839 13.16 64.5159 13.496 64.7719 13.88C65.0599 14.264 65.3639 14.776 65.6839 15.416C65.9719 16.12 66.2759 16.648 66.5959 17C66.9479 17.32 67.4599 17.48 68.1319 17.48L68.6119 18.2L68.1319 18.92C66.8519 18.92 65.8439 19.384 65.1079 20.312C64.3719 21.24 64.0039 22.584 64.0039 24.344C64.0039 25.848 64.4199 27 65.2519 27.8C66.0839 28.6 67.0439 29 68.1319 29L68.6119 29.72L68.1319 30.44C67.6199 30.44 67.1879 30.632 66.8359 31.016C66.5159 31.368 66.1799 31.912 65.8279 32.648C65.3479 33.608 64.8839 34.328 64.4359 34.808C63.9879 35.256 63.3479 35.48 62.5159 35.48C61.7159 35.48 61.1879 35.24 60.9319 34.76C60.6759 34.248 60.5159 33.56 60.4519 32.696C60.3559 31.864 60.1959 31.24 59.9719 30.824C59.7799 30.408 59.3799 30.2 58.7719 30.2C58.4519 30.2 58.1319 30.328 57.8119 30.584C57.5239 30.84 57.1079 31.272 56.5639 31.88C55.5719 33 54.6119 33.88 53.6839 34.52C52.7559 35.16 51.5399 35.48 50.0359 35.48C48.3079 35.48 46.9799 34.984 46.0519 33.992C45.1559 33 44.7079 31.752 44.7079 30.248C44.7079 29.416 44.8999 28.728 45.2839 28.184C45.6679 27.64 46.2439 27 47.0119 26.264C47.6839 25.656 48.1799 25.128 48.4999 24.68C48.8519 24.2 49.0279 23.64 49.0279 23C49.0279 21.88 48.7719 20.968 48.2599 20.264C47.7799 19.56 47.0439 18.776 46.0519 17.912C45.2519 17.24 44.6439 16.632 44.2279 16.088C43.8439 15.544 43.6519 14.888 43.6519 14.12C43.6519 12.776 44.0999 11.688 44.9959 10.856C45.8919 9.992 47.1879 9.56 48.8839 9.56C49.9079 9.56 50.7719 9.784 51.4759 10.232C52.1799 10.648 52.7079 11.224 53.0599 11.96C53.4439 12.696 53.6359 13.512 53.6359 14.408C53.6359 15.112 53.5879 15.736 53.4919 16.28C53.4279 16.824 53.2999 17.464 53.1079 18.2C52.8839 19.192 52.7239 20.04 52.6279 20.744C52.5319 21.448 52.4839 22.328 52.4839 23.384C52.4839 25.08 52.8039 26.392 53.4439 27.32C54.1159 28.216 55.1239 28.664 56.4679 28.664C57.6839 28.664 58.6919 28.312 59.4919 27.608C60.2919 26.904 60.6919 26.024 60.6919 24.968C60.6919 24.232 60.5159 23.592 60.1639 23.048C59.8119 22.504 59.2999 21.896 58.6279 21.224C57.8599 20.456 57.2839 19.768 56.8999 19.16C56.5159 18.552 56.3239 17.816 56.3239 16.952C56.3239 15.64 56.7399 14.568 57.5719 13.736C58.4359 12.872 59.6359 12.44 61.1719 12.44ZM79.9654 35.48C78.3334 35.48 76.9254 35.304 75.7414 34.952C74.5894 34.6 73.6614 34.2 72.9574 33.752C72.2854 33.272 71.5654 32.68 70.7974 31.976C70.1894 31.432 69.6934 31.048 69.3094 30.824C68.9574 30.568 68.5574 30.44 68.1094 30.44L67.6294 29.72L68.1094 29C68.5574 29 68.9254 28.92 69.2134 28.76C69.5334 28.568 69.8534 28.296 70.1734 27.944C70.5894 27.56 70.9894 27.272 71.3734 27.08C71.7574 26.856 72.2534 26.744 72.8614 26.744C73.3414 26.744 73.7574 26.824 74.1094 26.984C74.4614 27.144 74.9254 27.416 75.5014 27.8C76.1094 28.216 76.6534 28.536 77.1334 28.76C77.6454 28.952 78.2374 29.048 78.9094 29.048C79.9974 29.048 80.8134 28.872 81.3574 28.52C81.9334 28.168 82.2214 27.672 82.2214 27.032C82.2214 26.328 81.9174 25.832 81.3094 25.544C80.7334 25.256 79.5974 24.968 77.9014 24.68C76.0454 24.36 74.5734 23.96 73.4854 23.48C72.3974 22.968 71.6134 22.472 71.1334 21.992C70.6534 21.48 70.2214 20.888 69.8374 20.216C69.5174 19.736 69.2454 19.4 69.0214 19.208C68.8294 19.016 68.5254 18.92 68.1094 18.92L67.6294 18.2L68.1094 17.48C68.7494 17.48 69.3094 17.336 69.7894 17.048C70.3014 16.76 70.9574 16.296 71.7574 15.656C72.9734 14.632 74.1574 13.848 75.3094 13.304C76.4934 12.728 78.0614 12.44 80.0134 12.44C81.5174 12.44 82.8774 12.696 84.0934 13.208C85.3094 13.688 86.2534 14.36 86.9254 15.224C87.5974 16.088 87.9334 17.016 87.9334 18.008C87.9334 19.032 87.6294 19.816 87.0214 20.36C86.4134 20.904 85.6294 21.176 84.6694 21.176C84.0614 21.176 83.5174 21.112 83.0374 20.984C82.5894 20.824 82.0774 20.584 81.5014 20.264C80.8294 19.88 80.1734 19.592 79.5334 19.4C78.8934 19.208 78.0934 19.112 77.1334 19.112C76.0774 19.112 75.3094 19.288 74.8294 19.64C74.3814 19.96 74.1574 20.392 74.1574 20.936C74.1574 21.96 75.8054 22.76 79.1014 23.336C81.3414 23.72 83.1014 24.152 84.3814 24.632C85.6934 25.112 86.6534 25.736 87.2614 26.504C87.9014 27.272 88.2214 28.28 88.2214 29.528C88.2214 31.192 87.4854 32.6 86.0134 33.752C84.5734 34.904 82.5574 35.48 79.9654 35.48ZM95.3059 35.48C93.4819 35.48 92.1059 35.112 91.1779 34.376C90.2499 33.608 89.7859 32.568 89.7859 31.256C89.7859 30.648 89.8819 30.12 90.0739 29.672C90.2979 29.224 90.6179 28.712 91.0339 28.136C91.8019 26.984 92.3939 25.8 92.8099 24.584C93.2579 23.336 93.4819 21.528 93.4819 19.16C93.4819 17.176 93.2899 15.496 92.9059 14.12C92.5219 12.744 91.9779 11.288 91.2739 9.752C90.8259 8.76 90.4899 7.944 90.2659 7.304C90.0419 6.664 89.9299 5.976 89.9299 5.24C89.9299 3.928 90.3939 2.888 91.3219 2.12C92.2499 1.32 93.5779 0.919998 95.3059 0.919998C97.0019 0.919998 98.2499 1.32 99.0499 2.12C99.8819 2.888 100.298 3.912 100.298 5.192C100.298 5.896 100.186 6.552 99.9619 7.16C99.7379 7.736 99.4019 8.472 98.9539 9.368C98.3139 10.68 97.8179 11.864 97.4659 12.92C97.1139 13.976 96.9379 15.272 96.9379 16.808V17.192C97.0339 18.152 97.3379 18.632 97.8499 18.632C98.3619 18.632 98.8099 18.456 99.1939 18.104C99.6099 17.752 100.106 17.192 100.682 16.424C101.354 15.592 101.946 14.92 102.458 14.408C103.002 13.864 103.69 13.4 104.522 13.016C105.386 12.632 106.41 12.44 107.594 12.44C109.194 12.44 110.394 12.856 111.194 13.688C112.026 14.488 112.442 15.496 112.442 16.712C112.442 17.448 112.298 18.104 112.01 18.68C111.722 19.224 111.306 19.848 110.762 20.552C110.09 21.448 109.594 22.216 109.274 22.856C108.986 23.496 108.842 24.296 108.842 25.256C108.842 26.44 109.034 27.416 109.418 28.184C109.802 28.92 110.362 29.72 111.098 30.584C111.674 31.288 112.09 31.88 112.346 32.36C112.602 32.808 112.73 33.352 112.73 33.992C112.73 35.336 112.298 36.392 111.434 37.16C110.602 37.96 109.258 38.36 107.402 38.36C105.546 38.36 104.17 37.976 103.274 37.208C102.378 36.472 101.93 35.448 101.93 34.136C101.93 33.432 102.042 32.792 102.266 32.216C102.522 31.64 102.89 30.92 103.37 30.056C104.042 28.84 104.554 27.752 104.906 26.792C105.258 25.8 105.434 24.568 105.434 23.096C105.434 21.912 105.098 21.032 104.426 20.456C103.754 19.88 102.762 19.592 101.45 19.592C99.8179 19.592 98.6339 19.896 97.8979 20.504C97.1619 21.112 96.7939 22.136 96.7939 23.576C96.7939 24.568 96.9699 25.368 97.3219 25.976C97.7059 26.552 98.2339 27.192 98.9059 27.896C99.4819 28.44 99.9139 28.952 100.202 29.432C100.522 29.912 100.682 30.488 100.682 31.16C100.682 32.472 100.234 33.528 99.3379 34.328C98.4419 35.096 97.0979 35.48 95.3059 35.48ZM130.182 35.48C127.11 35.48 124.422 35.24 122.118 34.76C119.814 34.28 118.006 33.544 116.694 32.552C115.382 31.528 114.726 30.232 114.726 28.664C114.726 27.32 115.126 26.296 115.926 25.592C116.726 24.888 117.638 24.536 118.662 24.536C119.75 24.536 120.63 24.68 121.302 24.968C122.006 25.256 122.742 25.704 123.51 26.312C124.63 27.112 125.75 27.72 126.87 28.136C127.99 28.552 129.606 28.76 131.718 28.76C134.598 28.76 136.774 28.248 138.246 27.224C139.718 26.168 140.454 24.808 140.454 23.144C140.454 21.896 139.926 20.936 138.87 20.264C137.814 19.56 136.262 19.208 134.214 19.208C132.038 19.208 130.294 19.4 128.982 19.784C127.702 20.136 126.39 20.664 125.046 21.368C124.022 21.848 123.174 22.2 122.502 22.424C121.862 22.648 121.062 22.76 120.102 22.76C119.046 22.76 118.246 22.52 117.702 22.04C117.19 21.528 116.934 20.744 116.934 19.688C116.934 18.952 117.094 18.088 117.414 17.096C117.766 16.104 118.246 15.256 118.854 14.552C119.494 13.816 120.246 13.448 121.11 13.448C121.75 13.448 122.278 13.56 122.694 13.784C123.142 13.976 123.654 14.296 124.23 14.744C125.062 15.416 125.926 15.944 126.822 16.328C127.75 16.68 129.078 16.856 130.806 16.856C133.11 16.856 134.982 16.376 136.422 15.416C137.894 14.424 138.63 13.16 138.63 11.624C138.63 10.344 138.07 9.352 136.95 8.648C135.83 7.944 134.214 7.592 132.102 7.592C130.534 7.592 129.222 7.8 128.166 8.216C127.142 8.6 125.99 9.176 124.71 9.944C123.75 10.52 122.966 10.936 122.358 11.192C121.75 11.448 121.046 11.576 120.246 11.576C119.03 11.576 118.07 11.192 117.366 10.424C116.694 9.656 116.358 8.712 116.358 7.592C116.358 5.352 117.558 3.688 119.958 2.6C122.358 1.48 125.542 0.919998 129.51 0.919998C133.67 0.919998 136.998 1.752 139.494 3.416C141.99 5.08 143.238 7.384 143.238 10.328C143.238 11.064 143.062 11.768 142.71 12.44C142.39 13.112 141.91 13.768 141.27 14.408C140.79 14.792 140.438 15.128 140.214 15.416C140.022 15.704 139.926 16.008 139.926 16.328C139.926 16.872 140.262 17.416 140.934 17.96C142.118 18.888 142.95 19.864 143.43 20.888C143.942 21.912 144.182 23.224 144.15 24.824C144.118 26.872 143.574 28.696 142.518 30.296C141.494 31.896 139.926 33.16 137.814 34.088C135.734 35.016 133.19 35.48 130.182 35.48ZM156.171 35.48C153.099 35.48 150.715 34.392 149.019 32.216C147.355 30.04 146.523 27.224 146.523 23.768C146.523 21.368 146.971 19.32 147.867 17.624C148.763 15.896 149.947 14.6 151.419 13.736C152.923 12.872 154.555 12.44 156.315 12.44C158.107 12.44 159.547 12.696 160.635 13.208C161.723 13.72 162.827 14.44 163.947 15.368C164.875 16.104 165.659 16.648 166.299 17C166.971 17.32 167.787 17.48 168.747 17.48L169.227 18.2L168.747 18.92C167.563 18.92 166.571 19.352 165.771 20.216C164.971 21.048 164.571 22.232 164.571 23.768C164.571 25.4 164.955 26.68 165.723 27.608C166.523 28.536 167.531 29 168.747 29L169.227 29.72L168.747 30.44C167.691 30.44 166.779 30.632 166.011 31.016C165.275 31.368 164.395 31.928 163.371 32.696C162.155 33.592 161.035 34.28 160.011 34.76C159.019 35.24 157.739 35.48 156.171 35.48ZM155.739 29.192C157.531 29.192 158.891 28.664 159.819 27.608C160.747 26.552 161.211 25.256 161.211 23.72C161.211 22.024 160.747 20.776 159.819 19.976C158.923 19.144 157.579 18.728 155.787 18.728C154.059 18.728 152.651 19.16 151.563 20.024C150.507 20.856 149.979 22.088 149.979 23.72C149.979 25.288 150.475 26.6 151.467 27.656C152.459 28.68 153.883 29.192 155.739 29.192ZM182.19 35.48C180.494 35.48 179.086 35.24 177.966 34.76C176.846 34.28 175.63 33.576 174.318 32.648C173.198 31.88 172.254 31.32 171.486 30.968C170.718 30.616 169.806 30.44 168.75 30.44L168.27 29.72L168.75 29C170.03 29 171.086 28.6 171.918 27.8C172.75 26.968 173.166 25.624 173.166 23.768C173.166 22.168 172.766 20.968 171.966 20.168C171.166 19.336 170.094 18.92 168.75 18.92L168.27 18.2L168.75 17.48C170.158 17.48 171.358 17.384 172.35 17.192C173.374 17 174.494 16.712 175.71 16.328C176.798 16.008 177.758 15.768 178.59 15.608C179.454 15.416 180.43 15.32 181.518 15.32C184.43 15.32 186.83 16.104 188.718 17.672C190.606 19.24 191.55 21.544 191.55 24.584C191.55 26.44 191.214 28.2 190.542 29.864C189.902 31.528 188.878 32.888 187.47 33.944C186.062 34.968 184.302 35.48 182.19 35.48ZM182.67 29.24C184.27 29.24 185.582 28.872 186.606 28.136C187.63 27.4 188.142 26.408 188.142 25.16C188.142 23.88 187.63 22.888 186.606 22.184C185.582 21.48 184.27 21.128 182.67 21.128C180.654 21.128 179.118 21.416 178.062 21.992C177.038 22.536 176.526 23.528 176.526 24.968C176.526 26.28 177.086 27.32 178.206 28.088C179.358 28.856 180.846 29.24 182.67 29.24ZM224.662 35.48C223.126 35.48 221.846 35.08 220.822 34.28C219.83 33.448 219.334 32.376 219.334 31.064C219.334 30.328 219.478 29.688 219.766 29.144C220.086 28.568 220.55 27.896 221.158 27.128C221.766 26.392 222.214 25.752 222.502 25.208C222.822 24.664 222.982 24.04 222.982 23.336C222.982 22.088 222.566 21.176 221.734 20.6C220.902 20.024 219.718 19.736 218.182 19.736C216.838 19.736 215.734 20.008 214.87 20.552C214.038 21.096 213.622 21.864 213.622 22.856C213.622 23.624 213.782 24.296 214.102 24.872C214.454 25.448 214.982 26.136 215.686 26.936C216.39 27.8 216.902 28.52 217.222 29.096C217.574 29.64 217.75 30.296 217.75 31.064C217.75 32.344 217.27 33.4 216.31 34.232C215.35 35.064 214.006 35.48 212.278 35.48C210.678 35.48 209.414 35.08 208.486 34.28C207.59 33.448 207.142 32.312 207.142 30.872C207.142 30.2 207.27 29.592 207.526 29.048C207.814 28.472 208.23 27.784 208.774 26.984C209.318 26.12 209.718 25.416 209.974 24.872C210.262 24.296 210.406 23.672 210.406 23C210.406 21.848 210.118 21.016 209.542 20.504C208.998 19.992 207.878 19.736 206.182 19.736C204.838 19.736 203.718 19.976 202.822 20.456C201.958 20.904 201.526 21.624 201.526 22.616C201.526 23.192 201.67 23.704 201.958 24.152C202.278 24.6 202.742 25.112 203.35 25.688C203.958 26.264 204.406 26.776 204.694 27.224C205.014 27.672 205.174 28.2 205.174 28.808C205.174 29.992 204.806 30.92 204.07 31.592C203.334 32.264 201.958 32.6 199.942 32.6C198.022 32.6 196.582 32.28 195.622 31.64C194.694 30.968 194.23 30.088 194.23 29C194.23 28.456 194.374 27.992 194.662 27.608C194.982 27.192 195.462 26.696 196.102 26.12C196.806 25.48 197.334 24.92 197.686 24.44C198.038 23.96 198.214 23.352 198.214 22.616C198.214 22.136 198.086 21.768 197.83 21.512C197.574 21.256 197.142 20.936 196.534 20.552C195.766 20.072 195.174 19.592 194.758 19.112C194.342 18.632 194.134 17.912 194.134 16.952C194.134 15.704 194.534 14.648 195.334 13.784C196.134 12.888 197.238 12.44 198.646 12.44C199.542 12.44 200.23 12.648 200.71 13.064C201.222 13.448 201.574 13.912 201.766 14.456C201.958 15 202.134 15.704 202.294 16.568C202.39 17.208 202.502 17.688 202.63 18.008C202.758 18.328 202.966 18.488 203.254 18.488C203.702 18.488 204.086 18.216 204.406 17.672C204.758 17.128 205.158 16.28 205.606 15.128C206.31 13.368 207.014 12.008 207.718 11.048C208.454 10.056 209.446 9.56 210.694 9.56C211.846 9.56 212.678 10.04 213.19 11C213.734 11.928 214.23 13.24 214.678 14.936C214.998 16.056 215.27 16.872 215.494 17.384C215.718 17.864 216.038 18.104 216.454 18.104C216.71 18.104 216.982 17.976 217.27 17.72C217.558 17.432 217.958 17 218.47 16.424C219.494 15.208 220.502 14.248 221.494 13.544C222.518 12.808 223.734 12.44 225.142 12.44C226.582 12.44 227.734 12.872 228.598 13.736C229.462 14.6 229.894 15.672 229.894 16.952C229.894 17.624 229.734 18.232 229.414 18.776C229.094 19.288 228.598 19.928 227.926 20.696C227.382 21.304 226.966 21.832 226.678 22.28C226.422 22.696 226.294 23.144 226.294 23.624C226.294 24.296 226.422 24.856 226.678 25.304C226.966 25.72 227.398 26.216 227.974 26.792C228.614 27.528 229.094 28.168 229.414 28.712C229.734 29.224 229.894 29.896 229.894 30.728C229.894 32.296 229.446 33.48 228.55 34.28C227.654 35.08 226.358 35.48 224.662 35.48Z" fill="black"/>
</svg>
